<svg xmlns="http://www.w3.org/2000/svg" viewBox="0 0 64 64" fill="none" aria-hidden="true">
  <circle cx="32" cy="32" r="28" stroke="#fdba74" stroke-width="2" fill="#1e3a5f"/>
  <circle cx="32" cy="32" r="22" stroke="#ea580c" stroke-width="1.5" fill="none"/>
  <circle cx="32" cy="32" r="6" fill="#ea580c"/>
  <g stroke="#fdba74" stroke-width="2" stroke-linecap="round">
    <line x1="32" y1="4" x2="32" y2="14"/>
    <line x1="32" y1="50" x2="32" y2="60"/>
    <line x1="4" y1="32" x2="14" y2="32"/>
    <line x1="50" y1="32" x2="60" y2="32"/>
    <line x1="12.2" y1="12.2" x2="19.3" y2="19.3"/>
    <line x1="44.7" y1="44.7" x2="51.8" y2="51.8"/>
    <line x1="51.8" y1="12.2" x2="44.7" y2="19.3"/>
    <line x1="19.3" y1="44.7" x2="12.2" y2="51.8"/>
  </g>
  <g fill="#fdba74">
    <rect x="29" y="8" width="6" height="8" rx="1"/>
    <rect x="29" y="48" width="6" height="8" rx="1"/>
    <rect x="8" y="29" width="8" height="6" rx="1"/>
    <rect x="48" y="29" width="8" height="6" rx="1"/>
  </g>
</svg>
